
<svg viewBox="0 0 800 500" xmlns="http://www.w3.org/2000/svg" preserveAspectRatio="xMidYMid slice" width="100%" height="100%">
  <defs>
    <linearGradient id="bg-funding" x1="0%" y1="0%" x2="100%" y2="100%">
      <stop offset="0%" stop-color="#3b1d12"></stop>
      <stop offset="55%" stop-color="#5a2818"></stop>
      <stop offset="100%" stop-color="#28110a"></stop>
    </linearGradient>
    <radialGradient id="glow-funding" cx="70%" cy="20%" r="80%">
      <stop offset="0%" stop-color="#fb923c" stop-opacity="0.75"></stop>
      <stop offset="60%" stop-color="#fb923c" stop-opacity="0"></stop>
    </radialGradient>
    <radialGradient id="glow2-funding" cx="20%" cy="85%" r="70%">
      <stop offset="0%" stop-color="#fbbf24" stop-opacity="0.55"></stop>
      <stop offset="60%" stop-color="#fbbf24" stop-opacity="0"></stop>
    </radialGradient>
    <pattern id="grid-funding" width="40" height="40" patternUnits="userSpaceOnUse">
      <path d="M 40 0 L 0 0 0 40" fill="none" stroke="rgba(255,255,255,0.06)" stroke-width="1"></path>
    </pattern>
  </defs>
  <rect width="800" height="500" fill="url(#bg-funding)"></rect>
  <rect width="800" height="500" fill="url(#grid-funding)"></rect>
  <rect width="800" height="500" fill="url(#glow-funding)"></rect>
  <rect width="800" height="500" fill="url(#glow2-funding)"></rect>
  <g>
    <rect x="240" y="220" width="320" height="180" rx="14" fill="rgba(251,191,36,0.3)" stroke="rgba(255,255,255,0.35)" stroke-width="2"></rect>
    <circle cx="400" cy="310" r="55" fill="rgba(255,255,255,0.18)" stroke="rgba(255,255,255,0.5)" stroke-width="2"></circle>
    <text x="400" y="330" text-anchor="middle" fill="#fff" font-family="serif" font-style="italic" font-size="55">$</text>
    <path d="M 200 130 L 240 110 L 280 130 L 320 100 L 360 120 L 400 90 L 440 110 L 480 80 L 520 100 L 560 70 L 600 90" stroke="rgba(255,255,255,0.7)" stroke-width="2" fill="none" stroke-linecap="round"></path>
  </g>
</svg>