
<svg viewBox="0 0 800 500" xmlns="http://www.w3.org/2000/svg" preserveAspectRatio="xMidYMid slice" width="100%" height="100%">
  <defs>
    <linearGradient id="bg-revenue" x1="0%" y1="0%" x2="100%" y2="100%">
      <stop offset="0%" stop-color="#0e1a3a"></stop>
      <stop offset="55%" stop-color="#163a52"></stop>
      <stop offset="100%" stop-color="#0a1f3a"></stop>
    </linearGradient>
    <radialGradient id="glow-revenue" cx="70%" cy="20%" r="80%">
      <stop offset="0%" stop-color="#34d399" stop-opacity="0.75"></stop>
      <stop offset="60%" stop-color="#34d399" stop-opacity="0"></stop>
    </radialGradient>
    <radialGradient id="glow2-revenue" cx="20%" cy="85%" r="70%">
      <stop offset="0%" stop-color="#22d3ee" stop-opacity="0.55"></stop>
      <stop offset="60%" stop-color="#22d3ee" stop-opacity="0"></stop>
    </radialGradient>
    <pattern id="grid-revenue" width="40" height="40" patternUnits="userSpaceOnUse">
      <path d="M 40 0 L 0 0 0 40" fill="none" stroke="rgba(255,255,255,0.06)" stroke-width="1"></path>
    </pattern>
  </defs>
  <rect width="800" height="500" fill="url(#bg-revenue)"></rect>
  <rect width="800" height="500" fill="url(#grid-revenue)"></rect>
  <rect width="800" height="500" fill="url(#glow-revenue)"></rect>
  <rect width="800" height="500" fill="url(#glow2-revenue)"></rect>
  <g>
    <rect x="200" y="350" width="50" height="80" fill="rgba(52,211,153,0.6)" rx="4"></rect>
    <rect x="280" y="300" width="50" height="130" fill="rgba(52,211,153,0.7)" rx="4"></rect>
    <rect x="360" y="240" width="50" height="190" fill="rgba(34,211,238,0.7)" rx="4"></rect>
    <rect x="440" y="170" width="50" height="260" fill="rgba(34,211,238,0.85)" rx="4"></rect>
    <rect x="520" y="110" width="50" height="320" fill="rgba(167,139,250,0.85)" rx="4"></rect>
    <path d="M 200 380 Q 360 280 580 130" stroke="#fff" stroke-width="3" fill="none" stroke-linecap="round"></path>
    <circle cx="580" cy="130" r="9" fill="#fff"></circle>
  </g>
</svg>