
<svg viewBox="0 0 800 500" xmlns="http://www.w3.org/2000/svg" preserveAspectRatio="xMidYMid slice" width="100%" height="100%">
  <defs>
    <linearGradient id="bg-people" x1="0%" y1="0%" x2="100%" y2="100%">
      <stop offset="0%" stop-color="#0a2244"></stop>
      <stop offset="55%" stop-color="#143055"></stop>
      <stop offset="100%" stop-color="#0e1a3a"></stop>
    </linearGradient>
    <radialGradient id="glow-people" cx="70%" cy="20%" r="80%">
      <stop offset="0%" stop-color="#60a5fa" stop-opacity="0.75"></stop>
      <stop offset="60%" stop-color="#60a5fa" stop-opacity="0"></stop>
    </radialGradient>
    <radialGradient id="glow2-people" cx="20%" cy="85%" r="70%">
      <stop offset="0%" stop-color="#22d3ee" stop-opacity="0.55"></stop>
      <stop offset="60%" stop-color="#22d3ee" stop-opacity="0"></stop>
    </radialGradient>
    <pattern id="grid-people" width="40" height="40" patternUnits="userSpaceOnUse">
      <path d="M 40 0 L 0 0 0 40" fill="none" stroke="rgba(255,255,255,0.06)" stroke-width="1"></path>
    </pattern>
  </defs>
  <rect width="800" height="500" fill="url(#bg-people)"></rect>
  <rect width="800" height="500" fill="url(#grid-people)"></rect>
  <rect width="800" height="500" fill="url(#glow-people)"></rect>
  <rect width="800" height="500" fill="url(#glow2-people)"></rect>
  <g>
    <circle cx="280" cy="240" r="80" fill="rgba(96,165,250,0.45)" stroke="rgba(255,255,255,0.3)" stroke-width="2"></circle>
    <circle cx="280" cy="200" r="28" fill="rgba(255,255,255,0.75)"></circle>
    <path d="M 232 290 Q 280 230 328 290 L 328 320 L 232 320 Z" fill="rgba(255,255,255,0.75)"></path>
    <circle cx="430" cy="240" r="80" fill="rgba(34,211,238,0.45)" stroke="rgba(255,255,255,0.3)" stroke-width="2"></circle>
    <circle cx="430" cy="200" r="28" fill="rgba(255,255,255,0.75)"></circle>
    <path d="M 382 290 Q 430 230 478 290 L 478 320 L 382 320 Z" fill="rgba(255,255,255,0.75)"></path>
    <circle cx="580" cy="240" r="80" fill="rgba(167,139,250,0.45)" stroke="rgba(255,255,255,0.3)" stroke-width="2"></circle>
    <circle cx="580" cy="200" r="28" fill="rgba(255,255,255,0.75)"></circle>
    <path d="M 532 290 Q 580 230 628 290 L 628 320 L 532 320 Z" fill="rgba(255,255,255,0.75)"></path>
  </g>
</svg>