
<svg viewBox="0 0 800 500" xmlns="http://www.w3.org/2000/svg" preserveAspectRatio="xMidYMid slice" width="100%" height="100%">
  <defs>
    <linearGradient id="bg-growth" x1="0%" y1="0%" x2="100%" y2="100%">
      <stop offset="0%" stop-color="#3a0f3f"></stop>
      <stop offset="55%" stop-color="#5e1d52"></stop>
      <stop offset="100%" stop-color="#2a0d35"></stop>
    </linearGradient>
    <radialGradient id="glow-growth" cx="70%" cy="20%" r="80%">
      <stop offset="0%" stop-color="#f472b6" stop-opacity="0.75"></stop>
      <stop offset="60%" stop-color="#f472b6" stop-opacity="0"></stop>
    </radialGradient>
    <radialGradient id="glow2-growth" cx="20%" cy="85%" r="70%">
      <stop offset="0%" stop-color="#c084fc" stop-opacity="0.55"></stop>
      <stop offset="60%" stop-color="#c084fc" stop-opacity="0"></stop>
    </radialGradient>
    <pattern id="grid-growth" width="40" height="40" patternUnits="userSpaceOnUse">
      <path d="M 40 0 L 0 0 0 40" fill="none" stroke="rgba(255,255,255,0.06)" stroke-width="1"></path>
    </pattern>
  </defs>
  <rect width="800" height="500" fill="url(#bg-growth)"></rect>
  <rect width="800" height="500" fill="url(#grid-growth)"></rect>
  <rect width="800" height="500" fill="url(#glow-growth)"></rect>
  <rect width="800" height="500" fill="url(#glow2-growth)"></rect>
  <g>
    <path d="M 200 400 Q 400 300 580 130" stroke="rgba(244,114,182,0.6)" stroke-width="40" fill="none" stroke-linecap="round" opacity="0.4"></path>
    <path d="M 200 400 Q 400 300 580 130" stroke="rgba(255,255,255,0.95)" stroke-width="4" fill="none" stroke-linecap="round"></path>
    <g transform="translate(580 130) rotate(40)">
      <path d="M 0 -40 L 18 20 L 0 12 L -18 20 Z" fill="#fff"></path>
      <circle cx="0" cy="-8" r="6" fill="#f472b6"></circle>
    </g>
    <circle cx="240" cy="380" r="4" fill="#fff"></circle>
    <circle cx="180" cy="350" r="3" fill="#fff" opacity="0.7"></circle>
    <circle cx="220" cy="430" r="3" fill="#fff" opacity="0.5"></circle>
  </g>
</svg>