
<svg viewBox="0 0 800 500" xmlns="http://www.w3.org/2000/svg" preserveAspectRatio="xMidYMid slice" width="100%" height="100%">
  <defs>
    <linearGradient id="bg-india" x1="0%" y1="0%" x2="100%" y2="100%">
      <stop offset="0%" stop-color="#3a1a0a"></stop>
      <stop offset="55%" stop-color="#5b270d"></stop>
      <stop offset="100%" stop-color="#2d0f08"></stop>
    </linearGradient>
    <radialGradient id="glow-india" cx="70%" cy="20%" r="80%">
      <stop offset="0%" stop-color="#fbbf24" stop-opacity="0.75"></stop>
      <stop offset="60%" stop-color="#fbbf24" stop-opacity="0"></stop>
    </radialGradient>
    <radialGradient id="glow2-india" cx="20%" cy="85%" r="70%">
      <stop offset="0%" stop-color="#f472b6" stop-opacity="0.55"></stop>
      <stop offset="60%" stop-color="#f472b6" stop-opacity="0"></stop>
    </radialGradient>
    <pattern id="grid-india" width="40" height="40" patternUnits="userSpaceOnUse">
      <path d="M 40 0 L 0 0 0 40" fill="none" stroke="rgba(255,255,255,0.06)" stroke-width="1"></path>
    </pattern>
  </defs>
  <rect width="800" height="500" fill="url(#bg-india)"></rect>
  <rect width="800" height="500" fill="url(#grid-india)"></rect>
  <rect width="800" height="500" fill="url(#glow-india)"></rect>
  <rect width="800" height="500" fill="url(#glow2-india)"></rect>
  <g>
    <g fill="rgba(255,255,255,0.18)">
      <rect x="120" y="320" width="60" height="120"></rect>
      <rect x="200" y="270" width="50" height="170"></rect>
      <rect x="270" y="220" width="70" height="220"></rect>
      <rect x="360" y="180" width="55" height="260"></rect>
      <rect x="435" y="240" width="60" height="200"></rect>
      <rect x="515" y="200" width="50" height="240"></rect>
      <rect x="585" y="260" width="55" height="180"></rect>
      <rect x="660" y="220" width="40" height="220"></rect>
    </g>
    <g fill="#fbbf24">
      <rect x="285" y="240" width="10" height="10"></rect><rect x="305" y="240" width="10" height="10"></rect>
      <rect x="285" y="270" width="10" height="10"></rect><rect x="305" y="270" width="10" height="10"></rect>
      <rect x="375" y="210" width="10" height="10"></rect><rect x="395" y="210" width="10" height="10"></rect>
      <rect x="450" y="270" width="10" height="10"></rect><rect x="475" y="270" width="10" height="10"></rect>
      <rect x="530" y="230" width="10" height="10"></rect><rect x="550" y="230" width="10" height="10"></rect>
    </g>
    <circle cx="640" cy="130" r="34" fill="rgba(244,114,182,0.5)"></circle>
    <circle cx="640" cy="130" r="22" fill="rgba(255,255,255,0.85)"></circle>
  </g>
</svg>