
<svg viewBox="0 0 800 500" xmlns="http://www.w3.org/2000/svg" preserveAspectRatio="xMidYMid slice" width="100%" height="100%">
  <defs>
    <linearGradient id="bg-ai" x1="0%" y1="0%" x2="100%" y2="100%">
      <stop offset="0%" stop-color="#0a1230"></stop>
      <stop offset="55%" stop-color="#1e1c4a"></stop>
      <stop offset="100%" stop-color="#0e2540"></stop>
    </linearGradient>
    <radialGradient id="glow-ai" cx="70%" cy="20%" r="80%">
      <stop offset="0%" stop-color="#22d3ee" stop-opacity="0.75"></stop>
      <stop offset="60%" stop-color="#22d3ee" stop-opacity="0"></stop>
    </radialGradient>
    <radialGradient id="glow2-ai" cx="20%" cy="85%" r="70%">
      <stop offset="0%" stop-color="#a78bfa" stop-opacity="0.55"></stop>
      <stop offset="60%" stop-color="#a78bfa" stop-opacity="0"></stop>
    </radialGradient>
    <pattern id="grid-ai" width="40" height="40" patternUnits="userSpaceOnUse">
      <path d="M 40 0 L 0 0 0 40" fill="none" stroke="rgba(255,255,255,0.06)" stroke-width="1"></path>
    </pattern>
  </defs>
  <rect width="800" height="500" fill="url(#bg-ai)"></rect>
  <rect width="800" height="500" fill="url(#grid-ai)"></rect>
  <rect width="800" height="500" fill="url(#glow-ai)"></rect>
  <rect width="800" height="500" fill="url(#glow2-ai)"></rect>
  <g stroke="rgba(255,255,255,0.25)" stroke-width="1.2" fill="none">
    <circle cx="180" cy="160" r="6" fill="#22d3ee"></circle><circle cx="280" cy="120" r="6" fill="#a78bfa"></circle>
    <circle cx="380" cy="180" r="8" fill="#22d3ee"></circle><circle cx="500" cy="130" r="6" fill="#a78bfa"></circle>
    <circle cx="620" cy="190" r="6" fill="#22d3ee"></circle><circle cx="220" cy="290" r="6" fill="#a78bfa"></circle>
    <circle cx="340" cy="340" r="8" fill="#22d3ee"></circle><circle cx="480" cy="310" r="6" fill="#a78bfa"></circle>
    <circle cx="600" cy="360" r="6" fill="#22d3ee"></circle>
    <line x1="180" y1="160" x2="380" y2="180"></line><line x1="280" y1="120" x2="380" y2="180"></line>
    <line x1="380" y1="180" x2="500" y2="130"></line><line x1="380" y1="180" x2="620" y2="190"></line>
    <line x1="380" y1="180" x2="340" y2="340"></line><line x1="220" y1="290" x2="340" y2="340"></line>
    <line x1="340" y1="340" x2="480" y2="310"></line><line x1="340" y1="340" x2="600" y2="360"></line>
  </g>
</svg>